<svg height='100px' width='100px'  fill="#000000" xmlns="http://www.w3.org/2000/svg" viewBox="0 0 64 64" x="0px" y="0px"><title>male, sex, gender</title><g><path d="M54.11,11.84a1,1,0,0,0,0-.16h0c0-.06,0-.11,0-.16a.06.06,0,0,0,0,0,1,1,0,0,0-.07-.25s0-.05,0-.08v0A1.91,1.91,0,0,0,52.23,9.9h-.07L41.05,9.61a2,2,0,0,0-2,2,2,2,0,0,0,2,2l6.45.16-7.56,7.56a18.6,18.6,0,1,0,2.83,2.83l7.56-7.56.16,6.45a2,2,0,0,0,2,1.95h.06A2,2,0,0,0,54.39,23ZM38.51,46.12a14.59,14.59,0,1,1,4.27-10.31A14.49,14.49,0,0,1,38.51,46.12Z"></path></g></svg>